<svg version="1.1" id="Layer_1" xmlns="http://www.w3.org/2000/svg" xmlns:xlink="http://www.w3.org/1999/xlink" x="0px" y="0px"
	 width="100%" viewBox="0 0 1280 472" enable-background="new 0 0 1280 472" xml:space="preserve">
<path fill="#000000" opacity="1.000000" stroke="none" 
	d="
M1003.000000,473.000000 
	C668.666687,473.000000 334.833374,473.000000 1.000045,473.000000 
	C1.000030,315.666687 1.000030,158.333389 1.000015,1.000066 
	C427.666626,1.000044 854.333252,1.000044 1281.000000,1.000022 
	C1281.000000,158.333267 1281.000000,315.666534 1281.000000,472.999908 
	C1188.500000,473.000000 1096.000000,473.000000 1003.000000,473.000000 
M60.241684,105.032539 
	C53.880100,108.413185 47.518520,111.793831 40.497993,115.406441 
	C34.944302,118.754257 29.275091,121.927544 23.872320,125.503387 
	C19.292334,128.534668 19.288410,131.910965 23.385586,135.656570 
	C28.327587,140.174515 33.511372,139.796616 41.568081,134.679825 
	C63.268497,120.897888 85.981293,108.900452 109.829811,99.432907 
	C135.188232,89.365959 160.960876,80.293243 186.786972,71.472443 
	C201.716003,66.373489 217.020248,62.286491 232.318802,58.383610 
	C244.406021,55.299988 256.755524,53.254402 268.964294,50.634838 
	C284.705658,47.257309 300.352783,43.385647 316.178558,40.478355 
	C324.728271,38.907719 333.589264,39.113228 342.266937,38.136364 
	C352.770294,36.953979 363.190521,34.881462 373.714294,34.065838 
	C391.929474,32.654102 409.995239,31.953466 428.036774,37.533417 
	C440.920776,41.518238 442.607635,44.118267 433.765472,54.520512 
	C432.367004,56.165749 430.914429,57.848076 429.198456,59.126083 
	C421.467651,64.883888 413.987244,71.087090 405.771057,76.064049 
	C378.206635,92.761215 348.245819,104.588470 318.970032,117.780045 
	C276.933136,136.721710 234.371338,154.558228 192.840210,174.542770 
	C161.839035,189.460373 131.664963,206.261795 101.948341,223.636688 
	C73.227776,240.429245 45.574417,259.045746 17.421923,276.812927 
	C14.064649,278.931732 11.478387,281.152313 13.163900,285.664917 
	C15.078033,290.789612 20.474758,295.745331 24.242985,294.962982 
	C33.966309,292.944275 43.913490,291.418915 53.237194,288.165802 
	C86.162888,276.677704 118.696472,264.024078 152.547974,255.367966 
	C164.444351,252.325958 176.368164,249.219589 188.447449,247.100021 
	C213.950562,242.624878 239.434372,243.310364 264.432892,250.362289 
	C276.482269,253.761353 288.267639,258.414337 298.653381,265.539276 
	C308.917572,272.580841 319.307098,279.741180 328.272430,288.285980 
	C336.510071,296.137238 342.926025,305.900299 350.141205,314.823792 
	C354.010590,319.609344 357.631561,324.622070 361.783752,329.147736 
	C374.180176,342.659210 390.557739,345.982605 405.947968,336.183777 
	C416.334198,329.570984 425.772278,320.998535 434.307892,312.038879 
	C458.473755,286.672485 477.190399,257.333710 493.834198,226.648056 
	C495.779297,223.061935 498.157745,221.141586 502.249481,220.680023 
	C516.127747,219.114426 529.341492,215.390121 541.472534,208.185532 
	C545.455750,205.819855 549.751770,203.980896 553.977600,201.967300 
	C553.977600,201.967300 554.051514,202.032333 553.843506,202.730392 
	C551.947815,207.526016 549.721130,212.220123 548.213928,217.134888 
	C541.825806,237.965515 534.805176,258.653381 529.603455,279.784271 
	C522.367798,309.178101 516.461304,338.902252 510.196259,368.529541 
	C508.650848,375.837860 507.964417,383.325409 506.792053,390.716125 
	C506.254578,394.104340 504.416138,396.045380 500.902924,397.266144 
	C463.632019,410.217255 426.400116,423.283020 389.234314,436.532837 
	C376.059845,441.229614 363.069061,446.449249 350.068420,451.616425 
	C348.455414,452.257538 346.313049,453.913544 346.118622,455.332520 
	C345.558655,459.419891 352.267548,465.633759 356.376862,464.857117 
	C363.028992,463.599945 369.693695,462.173309 376.152832,460.171906 
	C402.231415,452.091248 428.186188,443.609894 454.281799,435.585815 
	C469.238983,430.986664 484.394287,427.034943 499.426941,422.676331 
	C503.775391,421.415527 505.616455,422.923370 506.042267,427.285095 
	C506.260864,429.524475 507.256500,431.688019 508.020050,434.001404 
	C508.020050,434.001404 508.137024,434.119049 508.298492,434.803284 
	C508.618958,435.744690 508.840149,436.734894 509.274811,437.620209 
	C516.036377,451.392303 525.773315,453.273254 536.168396,442.144196 
	C546.700195,430.868805 556.466187,418.881256 566.800049,407.415100 
	C568.675903,405.333771 571.492004,403.681396 574.188477,402.847534 
	C579.418579,401.230133 584.911743,400.487427 590.223450,399.104187 
	C597.915833,397.100891 605.456299,394.429779 613.221558,392.811707 
	C623.085510,390.756256 633.163330,389.739502 643.048462,387.770477 
	C651.849915,386.017334 660.442078,383.192291 669.256775,381.531189 
	C681.999268,379.129913 694.866272,377.395538 707.667542,375.299255 
	C733.430969,371.080383 759.083923,365.971771 784.976196,362.823761 
	C805.802063,360.291748 826.507996,356.448425 847.537415,355.610474 
	C848.351196,355.578003 849.152649,355.237305 849.990417,355.001617 
	C849.990417,355.001617 850.019592,354.961975 850.895264,354.910248 
	C853.218506,354.762848 855.554138,354.721008 857.862915,354.450378 
	C869.993042,353.028473 882.086426,351.167084 894.251831,350.214752 
	C903.331482,349.503998 912.538635,350.428192 921.619385,349.724854 
	C929.929138,349.081207 938.127625,348.331116 946.537842,348.358704 
	C963.403992,348.414093 980.275513,346.810059 997.145325,345.900635 
	C999.140320,345.793091 1001.142151,345.797607 1003.134766,345.661957 
	C1013.618347,344.948120 1024.102661,344.242432 1034.581055,343.457245 
	C1039.362427,343.098938 1044.126587,342.226379 1048.905518,342.168762 
	C1068.310913,341.934814 1087.718994,341.943695 1107.125732,341.806854 
	C1108.945312,341.794037 1110.756836,341.328552 1112.580688,341.172699 
	C1118.701904,340.649567 1124.824341,339.807983 1130.951172,339.762451 
	C1139.888794,339.696014 1148.843262,340.633514 1157.767456,340.368561 
	C1167.213501,340.088104 1176.628296,338.333160 1186.064575,338.262909 
	C1196.313599,338.186615 1206.568970,339.721100 1216.826172,339.781586 
	C1225.422363,339.832306 1234.020630,338.681793 1242.627197,338.247284 
	C1246.236938,338.065063 1249.870605,338.357819 1254.099121,338.447479 
	C1253.324463,340.215179 1253.237183,340.755707 1252.924805,341.078064 
	C1236.710205,357.812408 1220.466675,374.518707 1204.252075,391.253082 
	C1200.320801,395.310333 1200.519653,396.695801 1204.966553,400.390808 
	C1206.354248,401.543762 1207.654053,402.923767 1208.619385,404.438629 
	C1210.759155,407.796967 1212.764404,407.642487 1215.270996,404.819672 
	C1220.684448,398.723328 1226.231689,392.745941 1231.703247,386.701019 
	C1245.055298,371.949615 1258.410522,357.200989 1271.695801,342.389709 
	C1272.354492,341.655396 1272.949219,339.745300 1272.584595,339.385620 
	C1269.119873,335.967957 1265.926758,331.063965 1261.721069,329.864990 
	C1253.394531,327.491302 1244.468018,326.164886 1235.801147,326.219757 
	C1190.860596,326.504303 1145.923096,327.320740 1100.985840,328.041626 
	C1086.176147,328.279205 1071.365234,328.642517 1056.564453,329.202118 
	C1034.791626,330.025360 1013.026550,331.060364 991.259705,332.038269 
	C983.119629,332.403992 974.981812,332.829163 966.846252,333.285797 
	C944.592957,334.534790 922.343140,335.848450 900.088135,337.066498 
	C890.950867,337.566589 881.762634,337.472504 872.669434,338.373505 
	C852.466675,340.375366 832.291382,342.688416 812.138245,345.147491 
	C790.507568,347.786865 768.903625,350.655579 747.315735,353.625610 
	C743.059265,354.211212 738.981323,356.044464 734.728516,356.719421 
	C727.260376,357.904755 719.660095,358.307343 712.228943,359.661957 
	C705.558350,360.877899 699.095459,363.202759 692.442566,364.553894 
	C682.653809,366.541809 672.777588,368.099152 662.455933,369.414948 
	C660.849792,368.958405 659.243591,368.501862 658.088867,367.584503 
	C658.952881,367.101044 659.762451,366.428406 660.688904,366.161621 
	C689.002686,358.009735 717.263000,349.661407 745.670959,341.850647 
	C770.554321,335.009003 795.602600,328.766327 820.583618,322.280792 
	C844.272278,316.130859 867.922058,309.823059 891.672607,303.921539 
	C922.057495,296.371490 952.541809,289.222351 982.949707,281.763336 
	C992.463379,279.429626 1001.861572,276.627716 1011.324646,274.084778 
	C1023.653992,270.771637 1036.022217,267.596191 1048.285034,264.054474 
	C1049.375366,263.739594 1050.862549,260.571747 1050.388794,259.735474 
	C1046.535522,252.934311 1040.618042,248.274963 1032.860596,247.272110 
	C1025.132690,246.273071 1017.210144,246.843765 1009.452026,245.999527 
	C997.061035,244.651108 984.671692,243.066010 972.396729,240.922455 
	C953.047363,237.543518 934.875000,230.409348 917.459351,221.557556 
	C904.986938,215.218231 893.542358,217.205841 881.673950,223.059250 
	C870.786316,228.428925 859.550720,233.119690 848.323303,237.758148 
	C844.851440,239.192535 840.903687,239.475143 837.173889,240.285110 
	C836.753418,239.692993 836.333008,239.100891 835.912598,238.508774 
	C839.377930,232.406204 843.008301,226.390442 846.274231,220.182922 
	C852.930786,207.530655 859.391052,194.775040 865.987976,182.004349 
	C865.987976,182.004349 866.045349,181.948273 866.389465,181.364914 
	C874.010193,165.720459 882.044067,150.261017 889.153137,134.387421 
	C899.371338,111.571602 911.028259,89.264961 915.470459,64.232071 
	C917.138123,54.834183 919.795898,45.612797 921.490784,36.218662 
	C922.756042,29.206429 918.705078,23.969280 913.670105,19.935232 
	C912.134644,18.705053 908.424805,18.885941 906.428284,19.872589 
	C904.072205,21.036922 902.082397,23.524418 900.645630,25.873613 
	C890.658203,42.204056 880.339661,58.363216 871.106201,75.116791 
	C854.379395,105.466537 838.603760,136.317963 828.455933,169.660599 
	C822.188538,190.253326 816.689636,210.975296 818.071533,232.854767 
	C818.197693,234.851944 817.522339,237.270035 816.385315,238.917038 
	C808.631714,250.148468 800.741699,261.289124 792.694519,272.312256 
	C790.416870,275.432281 787.470093,278.063812 784.522522,281.252167 
	C784.049683,280.048157 783.731323,279.616089 783.731812,279.184357 
	C783.757202,255.686768 784.873108,232.280151 788.545105,209.011871 
	C789.360352,203.846069 790.711609,199.564850 794.393860,195.712067 
	C798.629211,191.280701 798.059204,186.534317 793.602539,182.660278 
	C789.610535,179.190155 784.979004,179.783066 780.704285,183.476089 
	C773.068359,190.072922 765.518372,196.889740 757.209351,202.553925 
	C748.416748,208.547745 738.820190,213.294861 727.833008,214.386093 
	C723.732727,214.793320 722.439880,214.336639 723.597717,209.694839 
	C725.592041,201.699966 725.567444,193.490829 718.717896,187.580612 
	C715.951294,185.193466 711.288635,182.841980 708.263611,183.593414 
	C705.800171,184.205338 703.631897,189.285568 702.914062,192.715393 
	C702.207153,196.092911 703.105225,199.986511 704.009521,203.469208 
	C704.874939,206.802155 704.507568,209.476669 701.870605,211.544586 
	C695.350159,216.657928 688.793701,221.732742 682.095459,226.608383 
	C679.562500,228.452103 676.600098,229.705780 673.833374,231.228409 
	C674.070374,228.210373 675.076782,226.163147 676.202698,224.183868 
	C686.407959,206.244446 697.357605,188.710480 704.543091,169.186890 
	C707.107666,162.218674 705.278076,156.878906 700.327026,152.021805 
	C694.960022,146.756653 691.222717,145.864868 684.074341,149.186798 
	C678.202698,151.915436 672.487122,155.051575 666.949829,158.414627 
	C650.094727,168.651535 634.579834,180.784210 620.465454,194.448349 
	C608.924011,205.621552 598.191528,217.714951 587.976013,230.121323 
	C584.935059,233.814499 583.270020,240.101761 583.751282,244.923309 
	C584.690063,254.329315 595.542542,263.932556 605.086121,264.679321 
	C612.814514,265.284027 620.639709,264.647461 628.422058,264.568817 
	C630.097290,264.551880 631.772827,264.566345 634.557617,264.566345 
	C632.479126,268.732025 631.045837,271.870422 629.383850,274.882568 
	C625.360718,282.173950 621.394165,289.504242 617.114746,296.644989 
	C602.054749,321.774200 586.930420,346.865570 571.638000,371.853546 
	C570.267212,374.093384 567.786255,376.306732 565.347168,377.131195 
	C551.944946,381.661530 538.416687,385.826294 524.881958,389.953186 
	C521.122437,391.099548 518.683289,388.541718 519.632812,384.782471 
	C521.332275,378.054047 523.211792,371.369171 524.809692,364.617249 
	C531.324951,337.087341 537.556458,309.488678 544.279114,282.009918 
	C553.016418,246.296417 566.191956,212.141632 581.573425,178.811859 
	C582.595764,176.596680 584.201965,174.605225 585.758911,172.690536 
	C592.236084,164.725113 599.150024,157.089752 605.257324,148.853928 
	C618.520691,130.968094 628.573975,111.307381 636.910583,90.663147 
	C638.835327,85.896721 637.872559,82.862106 635.195801,79.348030 
	C632.606262,75.948326 629.221558,75.794296 625.364502,76.053726 
	C619.820862,76.426613 617.247803,80.342522 614.946777,84.363518 
	C601.884949,107.189362 588.682678,129.943832 576.171692,153.070663 
	C572.184998,160.440216 567.621826,167.101349 561.139099,172.074554 
	C550.341370,180.358017 539.331482,188.445221 527.838623,195.709564 
	C521.854187,199.492203 514.646545,201.339798 507.991455,204.061462 
	C507.618164,203.587097 507.244873,203.112732 506.871613,202.638351 
	C507.245422,201.124893 507.532257,199.583496 508.007751,198.102692 
	C510.392853,190.674377 513.311951,183.374008 515.063416,175.802017 
	C516.121460,171.227859 516.613647,165.863022 515.263611,161.502502 
	C508.328491,139.101807 492.697632,128.585617 469.395660,129.348145 
	C455.042419,129.817825 441.175507,133.908417 427.859955,139.531418 
	C401.109833,150.827652 376.677124,166.035049 354.388336,184.468689 
	C344.328827,192.788269 335.598389,202.735901 326.460876,212.135361 
	C323.994904,214.672043 322.622742,217.815369 324.385223,221.713486 
	C330.306732,234.810562 339.236816,238.404007 352.873444,235.769806 
	C364.424133,233.538559 376.076874,229.035080 386.258575,223.093613 
	C408.234222,210.269852 429.292877,195.874786 450.729584,182.127121 
	C456.226379,178.601974 461.733978,175.093674 467.236633,171.577621 
	C467.781738,171.873199 468.326843,172.168777 468.871948,172.464355 
	C469.034363,179.675446 469.156555,186.887817 469.390137,194.096603 
	C469.442535,195.714050 469.443176,197.587265 470.229034,198.879822 
	C472.713654,202.966461 475.227844,207.125458 478.369781,210.693619 
	C480.895325,213.561768 481.291290,215.788391 479.346771,219.067154 
	C466.005005,241.563354 452.665710,264.043762 435.846283,284.224243 
	C424.200012,298.197754 412.128693,311.809326 396.721649,321.718170 
	C382.536102,330.841492 367.764496,331.190857 356.321198,314.682739 
	C350.079346,305.678253 342.942322,297.259827 335.823792,288.905273 
	C323.857727,274.861542 310.165283,262.657013 294.015442,253.638321 
	C261.244629,235.337860 225.864365,229.378281 188.824615,233.272720 
	C157.547455,236.561279 127.366806,244.819000 97.696754,255.058380 
	C89.527740,257.877563 81.253181,260.390900 72.968430,262.973022 
	C72.968430,262.973022 72.909042,262.902100 73.261299,262.337982 
	C78.066742,259.072052 82.693489,255.497971 87.706993,252.590866 
	C117.513931,235.307236 147.090576,217.586823 177.385483,201.197800 
	C198.734955,189.648071 221.003632,179.767899 243.041611,169.529160 
	C262.819214,160.340576 282.804718,151.595032 302.767639,142.811142 
	C321.350555,134.634445 340.133026,126.904373 358.625610,118.531433 
	C374.540405,111.325661 390.417664,103.958786 405.855530,95.800316 
	C420.864685,87.868416 435.462616,79.100723 446.651733,65.790886 
	C452.435913,58.910366 453.542358,50.855431 448.995178,43.143311 
	C442.662292,32.402576 432.643860,26.935846 420.118103,23.930237 
	C419.315186,23.718073 418.522278,23.451204 417.707855,23.301729 
	C396.302704,19.372990 374.806061,19.742962 353.312347,22.245525 
	C342.141418,23.546177 331.030396,25.361689 319.247253,26.960905 
	C318.818237,26.991371 318.389221,27.021839 317.104492,27.054121 
	C308.374023,28.222483 299.599640,29.134661 290.924042,30.622906 
	C279.625092,32.561172 268.404602,34.956547 256.434784,37.352737 
	C253.618561,38.229588 250.802353,39.106438 247.135803,40.023460 
	C244.509094,40.393822 241.841751,40.583015 239.261810,41.161835 
	C203.092453,49.276627 167.295441,58.782074 132.699020,72.191071 
	C113.517548,79.625488 94.717567,88.063362 75.881966,96.358528 
	C70.651726,98.661919 65.908775,102.071770 60.996231,104.995888 
	C60.996231,104.995888 60.996845,104.937660 60.241684,105.032539 
M735.477478,355.513763 
	C735.477478,355.513763 735.518799,355.503418 735.477478,355.513763 
z"/>
<path fill="#161616" opacity="1.000000" stroke="none" 
	d="
M420.890045,24.114168 
	C432.643860,26.935846 442.662292,32.402576 448.995178,43.143311 
	C453.542358,50.855431 452.435913,58.910366 446.651733,65.790886 
	C435.462616,79.100723 420.864685,87.868416 405.855530,95.800316 
	C390.417664,103.958786 374.540405,111.325661 358.625610,118.531433 
	C340.133026,126.904373 321.350555,134.634445 302.767639,142.811142 
	C282.804718,151.595032 262.819214,160.340576 243.041611,169.529160 
	C221.003632,179.767899 198.734955,189.648071 177.385483,201.197800 
	C147.090576,217.586823 117.513931,235.307236 87.706993,252.590866 
	C82.693489,255.497971 78.066742,259.072052 72.964050,262.638397 
	C72.526634,263.086792 72.386475,263.234802 72.246315,263.382782 
	C72.506561,263.270050 72.766808,263.157288 73.027054,263.044556 
	C81.253181,260.390900 89.527740,257.877563 97.696754,255.058380 
	C127.366806,244.819000 157.547455,236.561279 188.824615,233.272720 
	C225.864365,229.378281 261.244629,235.337860 294.015442,253.638321 
	C310.165283,262.657013 323.857727,274.861542 335.823792,288.905273 
	C342.942322,297.259827 350.079346,305.678253 356.321198,314.682739 
	C367.764496,331.190857 382.536102,330.841492 396.721649,321.718170 
	C412.128693,311.809326 424.200012,298.197754 435.846283,284.224243 
	C452.665710,264.043762 466.005005,241.563354 479.346771,219.067154 
	C481.291290,215.788391 480.895325,213.561768 478.369781,210.693619 
	C475.227844,207.125458 472.713654,202.966461 470.229034,198.879822 
	C469.443176,197.587265 469.442535,195.714050 469.390137,194.096603 
	C469.156555,186.887817 469.034363,179.675446 468.871948,172.464355 
	C468.326843,172.168777 467.781738,171.873199 467.236633,171.577621 
	C461.733978,175.093674 456.226379,178.601974 450.729584,182.127121 
	C429.292877,195.874786 408.234222,210.269852 386.258575,223.093613 
	C376.076874,229.035080 364.424133,233.538559 352.873444,235.769806 
	C339.236816,238.404007 330.306732,234.810562 324.385223,221.713486 
	C322.622742,217.815369 323.994904,214.672043 326.460876,212.135361 
	C335.598389,202.735901 344.328827,192.788269 354.388336,184.468689 
	C376.677124,166.035049 401.109833,150.827652 427.859955,139.531418 
	C441.175507,133.908417 455.042419,129.817825 469.395660,129.348145 
	C492.697632,128.585617 508.328491,139.101807 515.263611,161.502502 
	C516.613647,165.863022 516.121460,171.227859 515.063416,175.802017 
	C513.311951,183.374008 510.392853,190.674377 508.007751,198.102692 
	C507.532257,199.583496 507.245422,201.124893 506.871613,202.638351 
	C507.244873,203.112732 507.618164,203.587097 507.991455,204.061462 
	C514.646545,201.339798 521.854187,199.492203 527.838623,195.709564 
	C539.331482,188.445221 550.341370,180.358017 561.139099,172.074554 
	C567.621826,167.101349 572.184998,160.440216 576.171692,153.070663 
	C588.682678,129.943832 601.884949,107.189362 614.946777,84.363518 
	C617.247803,80.342522 619.820862,76.426613 625.364502,76.053726 
	C629.221558,75.794296 632.606262,75.948326 635.195801,79.348030 
	C637.872559,82.862106 638.835327,85.896721 636.910583,90.663147 
	C628.573975,111.307381 618.520691,130.968094 605.257324,148.853928 
	C599.150024,157.089752 592.236084,164.725113 585.758911,172.690536 
	C584.201965,174.605225 582.595764,176.596680 581.573425,178.811859 
	C566.191956,212.141632 553.016418,246.296417 544.279114,282.009918 
	C537.556458,309.488678 531.324951,337.087341 524.809692,364.617249 
	C523.211792,371.369171 521.332275,378.054047 519.632812,384.782471 
	C518.683289,388.541718 521.122437,391.099548 524.881958,389.953186 
	C538.416687,385.826294 551.944946,381.661530 565.347168,377.131195 
	C567.786255,376.306732 570.267212,374.093384 571.638000,371.853546 
	C586.930420,346.865570 602.054749,321.774200 617.114746,296.644989 
	C621.394165,289.504242 625.360718,282.173950 629.383850,274.882568 
	C631.045837,271.870422 632.479126,268.732025 634.557617,264.566345 
	C631.772827,264.566345 630.097290,264.551880 628.422058,264.568817 
	C620.639709,264.647461 612.814514,265.284027 605.086121,264.679321 
	C595.542542,263.932556 584.690063,254.329315 583.751282,244.923309 
	C583.270020,240.101761 584.935059,233.814499 587.976013,230.121323 
	C598.191528,217.714951 608.924011,205.621552 620.465454,194.448349 
	C634.579834,180.784210 650.094727,168.651535 666.949829,158.414627 
	C672.487122,155.051575 678.202698,151.915436 684.074341,149.186798 
	C691.222717,145.864868 694.960022,146.756653 700.327026,152.021805 
	C705.278076,156.878906 707.107666,162.218674 704.543091,169.186890 
	C697.357605,188.710480 686.407959,206.244446 676.202698,224.183868 
	C675.076782,226.163147 674.070374,228.210373 673.833374,231.228409 
	C676.600098,229.705780 679.562500,228.452103 682.095459,226.608383 
	C688.793701,221.732742 695.350159,216.657928 701.870605,211.544586 
	C704.507568,209.476669 704.874939,206.802155 704.009521,203.469208 
	C703.105225,199.986511 702.207153,196.092911 702.914062,192.715393 
	C703.631897,189.285568 705.800171,184.205338 708.263611,183.593414 
	C711.288635,182.841980 715.951294,185.193466 718.717896,187.580612 
	C725.567444,193.490829 725.592041,201.699966 723.597717,209.694839 
	C722.439880,214.336639 723.732727,214.793320 727.833008,214.386093 
	C738.820190,213.294861 748.416748,208.547745 757.209351,202.553925 
	C765.518372,196.889740 773.068359,190.072922 780.704285,183.476089 
	C784.979004,179.783066 789.610535,179.190155 793.602539,182.660278 
	C798.059204,186.534317 798.629211,191.280701 794.393860,195.712067 
	C790.711609,199.564850 789.360352,203.846069 788.545105,209.011871 
	C784.873108,232.280151 783.757202,255.686768 783.731812,279.184357 
	C783.731323,279.616089 784.049683,280.048157 784.522522,281.252167 
	C787.470093,278.063812 790.416870,275.432281 792.694519,272.312256 
	C800.741699,261.289124 808.631714,250.148468 816.385315,238.917038 
	C817.522339,237.270035 818.197693,234.851944 818.071533,232.854767 
	C816.689636,210.975296 822.188538,190.253326 828.455933,169.660599 
	C838.603760,136.317963 854.379395,105.466537 871.106201,75.116791 
	C880.339661,58.363216 890.658203,42.204056 900.645630,25.873613 
	C902.082397,23.524418 904.072205,21.036922 906.428284,19.872589 
	C908.424805,18.885941 912.134644,18.705053 913.670105,19.935232 
	C918.705078,23.969280 922.756042,29.206429 921.490784,36.218662 
	C919.795898,45.612797 917.138123,54.834183 915.470459,64.232071 
	C911.028259,89.264961 899.371338,111.571602 889.153137,134.387421 
	C882.044067,150.261017 874.010193,165.720459 866.193420,181.644897 
	C865.997375,181.924881 865.932190,182.061996 865.932251,182.062012 
	C859.391052,194.775040 852.930786,207.530655 846.274231,220.182922 
	C843.008301,226.390442 839.377930,232.406204 835.912598,238.508774 
	C836.333008,239.100891 836.753418,239.692993 837.173889,240.285110 
	C840.903687,239.475143 844.851440,239.192535 848.323303,237.758148 
	C859.550720,233.119690 870.786316,228.428925 881.673950,223.059250 
	C893.542358,217.205841 904.986938,215.218231 917.459351,221.557556 
	C934.875000,230.409348 953.047363,237.543518 972.396729,240.922455 
	C984.671692,243.066010 997.061035,244.651108 1009.452026,245.999527 
	C1017.210144,246.843765 1025.132690,246.273071 1032.860596,247.272110 
	C1040.618042,248.274963 1046.535522,252.934311 1050.388794,259.735474 
	C1050.862549,260.571747 1049.375366,263.739594 1048.285034,264.054474 
	C1036.022217,267.596191 1023.653992,270.771637 1011.324646,274.084778 
	C1001.861572,276.627716 992.463379,279.429626 982.949707,281.763336 
	C952.541809,289.222351 922.057495,296.371490 891.672607,303.921539 
	C867.922058,309.823059 844.272278,316.130859 820.583618,322.280792 
	C795.602600,328.766327 770.554321,335.009003 745.670959,341.850647 
	C717.263000,349.661407 689.002686,358.009735 660.688904,366.161621 
	C659.762451,366.428406 658.952881,367.101044 657.391479,367.802551 
	C643.109985,367.414978 631.105896,372.852631 618.682556,376.686523 
	C618.876953,377.557709 619.071350,378.428925 619.265747,379.300110 
	C633.823364,376.146698 648.381042,372.993286 662.938660,369.839905 
	C672.777588,368.099152 682.653809,366.541809 692.442566,364.553894 
	C699.095459,363.202759 705.558350,360.877899 712.228943,359.661957 
	C719.660095,358.307343 727.260376,357.904755 734.728516,356.719421 
	C738.981323,356.044464 743.059265,354.211212 747.315735,353.625610 
	C768.903625,350.655579 790.507568,347.786865 812.138245,345.147491 
	C832.291382,342.688416 852.466675,340.375366 872.669434,338.373505 
	C881.762634,337.472504 890.950867,337.566589 900.088135,337.066498 
	C922.343140,335.848450 944.592957,334.534790 966.846252,333.285797 
	C974.981812,332.829163 983.119629,332.403992 991.259705,332.038269 
	C1013.026550,331.060364 1034.791626,330.025360 1056.564453,329.202118 
	C1071.365234,328.642517 1086.176147,328.279205 1100.985840,328.041626 
	C1145.923096,327.320740 1190.860596,326.504303 1235.801147,326.219757 
	C1244.468018,326.164886 1253.394531,327.491302 1261.721069,329.864990 
	C1265.926758,331.063965 1269.119873,335.967957 1272.584595,339.385620 
	C1272.949219,339.745300 1272.354492,341.655396 1271.695801,342.389709 
	C1258.410522,357.200989 1245.055298,371.949615 1231.703247,386.701019 
	C1226.231689,392.745941 1220.684448,398.723328 1215.270996,404.819672 
	C1212.764404,407.642487 1210.759155,407.796967 1208.619385,404.438629 
	C1207.654053,402.923767 1206.354248,401.543762 1204.966553,400.390808 
	C1200.519653,396.695801 1200.320801,395.310333 1204.252075,391.253082 
	C1220.466675,374.518707 1236.710205,357.812408 1252.924805,341.078064 
	C1253.237183,340.755707 1253.324463,340.215179 1254.099121,338.447479 
	C1249.870605,338.357819 1246.236938,338.065063 1242.627197,338.247284 
	C1234.020630,338.681793 1225.422363,339.832306 1216.826172,339.781586 
	C1206.568970,339.721100 1196.313599,338.186615 1186.064575,338.262909 
	C1176.628296,338.333160 1167.213501,340.088104 1157.767456,340.368561 
	C1148.843262,340.633514 1139.888794,339.696014 1130.951172,339.762451 
	C1124.824341,339.807983 1118.701904,340.649567 1112.580688,341.172699 
	C1110.756836,341.328552 1108.945312,341.794037 1107.125732,341.806854 
	C1087.718994,341.943695 1068.310913,341.934814 1048.905518,342.168762 
	C1044.126587,342.226379 1039.362427,343.098938 1034.581055,343.457245 
	C1024.102661,344.242432 1013.618347,344.948120 1003.134766,345.661957 
	C1001.142151,345.797607 999.140320,345.793091 997.145325,345.900635 
	C980.275513,346.810059 963.403992,348.414093 946.537842,348.358704 
	C938.127625,348.331116 929.929138,349.081207 921.619385,349.724854 
	C912.538635,350.428192 903.331482,349.503998 894.251831,350.214752 
	C882.086426,351.167084 869.993042,353.028473 857.862915,354.450378 
	C855.554138,354.721008 853.218506,354.762848 850.352051,354.867676 
	C849.605591,354.817993 849.402405,354.810852 849.199219,354.803711 
	C849.452759,354.882568 849.706299,354.961395 849.959839,355.040222 
	C849.152649,355.237305 848.351196,355.578003 847.537415,355.610474 
	C826.507996,356.448425 805.802063,360.291748 784.976196,362.823761 
	C759.083923,365.971771 733.430969,371.080383 707.667542,375.299255 
	C694.866272,377.395538 681.999268,379.129913 669.256775,381.531189 
	C660.442078,383.192291 651.849915,386.017334 643.048462,387.770477 
	C633.163330,389.739502 623.085510,390.756256 613.221558,392.811707 
	C605.456299,394.429779 597.915833,397.100891 590.223450,399.104187 
	C584.911743,400.487427 579.418579,401.230133 574.188477,402.847534 
	C571.492004,403.681396 568.675903,405.333771 566.800049,407.415100 
	C556.466187,418.881256 546.700195,430.868805 536.168396,442.144196 
	C525.773315,453.273254 516.036377,451.392303 509.274811,437.620209 
	C508.840149,436.734894 508.618958,435.744690 508.221863,434.416199 
	C508.145203,434.029083 507.901001,433.885834 507.901001,433.885834 
	C507.256500,431.688019 506.260864,429.524475 506.042267,427.285095 
	C505.616455,422.923370 503.775391,421.415527 499.426941,422.676331 
	C484.394287,427.034943 469.238983,430.986664 454.281799,435.585815 
	C428.186188,443.609894 402.231415,452.091248 376.152832,460.171906 
	C369.693695,462.173309 363.028992,463.599945 356.376862,464.857117 
	C352.267548,465.633759 345.558655,459.419891 346.118622,455.332520 
	C346.313049,453.913544 348.455414,452.257538 350.068420,451.616425 
	C363.069061,446.449249 376.059845,441.229614 389.234314,436.532837 
	C426.400116,423.283020 463.632019,410.217255 500.902924,397.266144 
	C504.416138,396.045380 506.254578,394.104340 506.792053,390.716125 
	C507.964417,383.325409 508.650848,375.837860 510.196259,368.529541 
	C516.461304,338.902252 522.367798,309.178101 529.603455,279.784271 
	C534.805176,258.653381 541.825806,237.965515 548.213928,217.134888 
	C549.721130,212.220123 551.947815,207.526016 553.987610,202.326126 
	C554.131714,201.921860 554.116333,201.636368 554.116333,201.636368 
	C554.116333,201.636368 553.904785,201.901077 553.904785,201.901077 
	C549.751770,203.980896 545.455750,205.819855 541.472534,208.185532 
	C529.341492,215.390121 516.127747,219.114426 502.249481,220.680023 
	C498.157745,221.141586 495.779297,223.061935 493.834198,226.648056 
	C477.190399,257.333710 458.473755,286.672485 434.307892,312.038879 
	C425.772278,320.998535 416.334198,329.570984 405.947968,336.183777 
	C390.557739,345.982605 374.180176,342.659210 361.783752,329.147736 
	C357.631561,324.622070 354.010590,319.609344 350.141205,314.823792 
	C342.926025,305.900299 336.510071,296.137238 328.272430,288.285980 
	C319.307098,279.741180 308.917572,272.580841 298.653381,265.539276 
	C288.267639,258.414337 276.482269,253.761353 264.432892,250.362289 
	C239.434372,243.310364 213.950562,242.624878 188.447449,247.100021 
	C176.368164,249.219589 164.444351,252.325958 152.547974,255.367966 
	C118.696472,264.024078 86.162888,276.677704 53.237194,288.165802 
	C43.913490,291.418915 33.966309,292.944275 24.242985,294.962982 
	C20.474758,295.745331 15.078033,290.789612 13.163900,285.664917 
	C11.478387,281.152313 14.064649,278.931732 17.421923,276.812927 
	C45.574417,259.045746 73.227776,240.429245 101.948341,223.636688 
	C131.664963,206.261795 161.839035,189.460373 192.840210,174.542770 
	C234.371338,154.558228 276.933136,136.721710 318.970032,117.780045 
	C348.245819,104.588470 378.206635,92.761215 405.771057,76.064049 
	C413.987244,71.087090 421.467651,64.883888 429.198456,59.126083 
	C430.914429,57.848076 432.367004,56.165749 433.765472,54.520512 
	C442.607635,44.118267 440.920776,41.518238 428.036774,37.533417 
	C409.995239,31.953466 391.929474,32.654102 373.714294,34.065838 
	C363.190521,34.881462 352.770294,36.953979 342.266937,38.136364 
	C333.589264,39.113228 324.728271,38.907719 316.178558,40.478355 
	C300.352783,43.385647 284.705658,47.257309 268.964294,50.634838 
	C256.755524,53.254402 244.406021,55.299988 232.318802,58.383610 
	C217.020248,62.286491 201.716003,66.373489 186.786972,71.472443 
	C160.960876,80.293243 135.188232,89.365959 109.829811,99.432907 
	C85.981293,108.900452 63.268497,120.897888 41.568081,134.679825 
	C33.511372,139.796616 28.327587,140.174515 23.385586,135.656570 
	C19.288410,131.910965 19.292334,128.534668 23.872320,125.503387 
	C29.275091,121.927544 34.944302,118.754257 41.018284,115.443085 
	C49.450634,114.597725 55.469704,110.221680 60.996845,104.937660 
	C60.996845,104.937660 60.996231,104.995888 61.359077,104.950790 
	C65.117523,103.614136 68.597679,102.506958 71.892731,100.996086 
	C81.413643,96.630501 90.648766,91.563126 100.379860,87.750877 
	C120.334473,79.933495 140.380432,72.281990 160.689728,65.457817 
	C177.989471,59.644882 195.653656,54.878078 213.266785,50.050331 
	C224.157913,47.065075 235.263229,44.864834 246.241257,42.184608 
	C246.959213,42.009315 247.410690,40.742416 247.986130,39.983284 
	C250.802353,39.106438 253.618561,38.229588 257.041779,37.478821 
	C263.132660,37.281425 268.680817,37.378025 274.087616,36.550640 
	C286.992859,34.575775 299.845642,32.241646 312.681030,29.845697 
	C314.549469,29.496923 316.205750,28.011679 317.960205,27.052309 
	C318.389221,27.021839 318.818237,26.991371 319.885925,27.127197 
	C322.441681,27.594719 324.413055,28.349432 326.267487,28.127464 
	C346.178070,25.744230 366.040680,22.703388 386.171112,23.207466 
	C393.593536,23.393328 400.990540,24.472866 408.414215,24.776691 
	C412.556854,24.946236 416.730408,24.359886 420.890045,24.114168 
M834.470703,208.515671 
	C839.186218,199.343994 844.201172,190.312180 848.563171,180.975388 
	C863.983154,147.969452 879.369934,114.944839 894.334473,81.731400 
	C898.342896,72.834770 900.804932,63.241444 904.506104,53.967377 
	C908.061340,52.763897 907.239197,50.570480 906.671814,48.434685 
	C905.987671,48.320992 905.303467,48.207298 904.619263,48.093605 
	C904.424927,50.070072 904.230652,52.046543 903.532593,54.473820 
	C898.820679,62.105465 894.072083,69.714699 889.403320,77.372650 
	C870.129639,108.986473 854.111633,142.187943 841.947083,177.147156 
	C838.369995,187.427353 836.550171,198.319016 833.904602,208.985580 
	C833.904602,208.985580 834.043762,209.050720 834.470703,208.515671 
M806.157715,282.668396 
	C803.794739,285.464661 801.538940,288.360779 799.046387,291.036346 
	C793.877319,296.585114 787.465332,298.217102 780.358643,295.847351 
	C773.878296,293.686432 771.879272,287.518433 771.411499,281.934631 
	C770.623779,272.531830 771.179382,262.991241 771.545471,253.523132 
	C772.043701,240.637314 772.894836,227.765121 773.644836,213.962860 
	C767.289612,217.201340 761.813965,219.896011 756.426392,222.756485 
	C744.342041,229.172531 732.103394,228.126007 719.647095,223.974930 
	C717.949158,223.409073 715.313416,223.647156 713.903687,224.638733 
	C710.828918,226.801498 708.481323,229.981964 705.453186,232.230103 
	C692.395142,241.924545 677.852295,248.850815 662.861145,255.008728 
	C659.679199,256.315765 656.331604,258.817200 654.578125,261.693604 
	C650.003235,269.198364 646.433228,277.306519 642.169556,285.011963 
	C630.082153,306.857025 617.951599,328.679871 605.603149,350.377747 
	C602.306152,356.170929 598.166382,361.484436 594.413513,367.018158 
	C594.674316,367.458282 594.935181,367.898438 595.195984,368.338562 
	C641.331482,355.136902 687.350525,341.509064 733.635254,328.853210 
	C780.154785,316.133179 826.836609,303.969513 873.636230,292.321075 
	C919.857849,280.816437 966.315857,270.261383 1012.670105,259.289764 
	C1011.299561,257.931335 1009.749512,257.334625 1008.144714,257.068268 
	C998.768982,255.512100 989.275940,256.623444 979.866455,252.962631 
	C961.496704,245.815674 942.265198,240.881012 923.906677,233.709030 
	C914.830322,230.163269 906.884338,230.450500 898.532349,234.124130 
	C888.021973,238.747101 877.661438,243.713699 867.118835,248.259781 
	C856.065002,253.026276 844.558838,255.063110 832.705994,251.803467 
	C829.167908,250.830475 827.594055,252.132629 825.800781,254.746262 
	C819.498047,263.932465 813.005615,272.988495 806.157715,282.668396 
M502.911469,163.132614 
	C502.916168,160.467834 502.764771,157.791565 502.959625,155.140762 
	C503.312164,150.344986 501.623138,146.902130 496.784027,145.703201 
	C491.505371,144.395370 486.200928,143.007523 480.822632,142.329193 
	C472.953003,141.336655 465.254272,142.152802 457.982544,145.892456 
	C455.211060,147.317734 452.029999,147.956421 449.021240,148.908218 
	C444.480927,150.344528 439.736267,151.317352 435.430725,153.265610 
	C430.463531,155.513245 425.830017,158.525131 421.137726,161.348328 
	C408.481415,168.963211 395.489929,176.102463 383.356812,184.480927 
	C372.718323,191.827332 362.901184,200.408249 353.048523,208.826920 
	C348.691803,212.549530 345.143402,217.218155 341.228058,221.457321 
	C341.643768,222.052216 342.059479,222.647110 342.475189,223.242004 
	C350.521759,220.238953 359.103577,218.191727 366.509369,214.044434 
	C384.935150,203.725937 402.944092,192.642242 420.890411,181.495499 
	C433.886749,173.423294 446.545898,164.804993 459.292633,156.335709 
	C464.977753,152.558319 470.410461,154.068924 474.966034,157.748718 
	C479.781464,161.638458 483.270508,166.570969 482.342712,173.659042 
	C481.222382,182.218079 480.568665,190.856979 480.213593,199.481934 
	C480.140320,201.262024 482.269470,203.132797 483.383514,204.961807 
	C484.996826,203.839279 487.207458,203.065796 488.107117,201.526245 
	C490.446136,197.523529 492.503326,193.295151 494.139099,188.955566 
	C497.242371,180.722641 499.972565,172.349091 502.911469,163.132614 
M634.552917,247.103088 
	C640.392639,245.327103 646.175659,244.105927 649.648743,237.784943 
	C660.297180,218.404816 671.515198,199.338364 682.383423,180.077545 
	C684.609192,176.132843 686.277466,171.873550 688.800232,166.482452 
	C679.911743,170.231842 673.257751,174.115677 666.677368,179.068985 
	C641.474548,198.040344 617.493591,218.106354 598.852112,243.848022 
	C597.706360,245.430191 596.502502,248.034912 597.069458,249.479385 
	C597.587891,250.800186 600.578186,252.061142 602.296631,251.851532 
	C612.813660,250.568741 623.278625,248.859879 634.552917,247.103088 
M516.725159,433.176056 
	C518.152039,432.907776 519.832214,433.023254 520.949402,432.285767 
	C522.865295,431.021088 524.476624,429.271423 526.132263,427.640472 
	C530.777161,423.064758 535.379272,418.445709 540.704407,413.140320 
	C538.623962,412.623322 537.954834,412.219666 537.442688,412.365906 
	C531.375793,414.098511 525.304016,415.826538 519.308594,417.785492 
	C518.216064,418.142456 516.759521,419.468445 516.672119,420.453705 
	C516.312805,424.502655 516.417175,428.592712 516.725159,433.176056 
M908.269226,338.713867 
	C907.756348,338.567627 907.243408,338.421356 906.730530,338.275116 
	C906.703857,338.459503 906.677185,338.643921 906.650513,338.828308 
	C907.105896,338.828308 907.561340,338.828308 908.269226,338.713867 
M995.449707,264.479065 
	C995.449707,264.479065 995.486877,264.421844 995.449707,264.479065 
M815.528748,346.560669 
	C815.528748,346.560669 815.473633,346.538605 815.528748,346.560669 
M604.468506,367.507294 
	C604.468506,367.507294 604.514038,367.495239 604.468506,367.507294 
M969.483215,270.469177 
	C969.483215,270.469177 969.497253,270.513031 969.483215,270.469177 
z"/>
<path fill="#232323" opacity="1.000000" stroke="none" 
	d="
M247.560974,40.003372 
	C247.410690,40.742416 246.959213,42.009315 246.241257,42.184608 
	C235.263229,44.864834 224.157913,47.065075 213.266785,50.050331 
	C195.653656,54.878078 177.989471,59.644882 160.689728,65.457817 
	C140.380432,72.281990 120.334473,79.933495 100.379860,87.750877 
	C90.648766,91.563126 81.413643,96.630501 71.892731,100.996086 
	C68.597679,102.506958 65.117523,103.614136 61.332092,104.939850 
	C65.908775,102.071770 70.651726,98.661919 75.881966,96.358528 
	C94.717567,88.063362 113.517548,79.625488 132.699020,72.191071 
	C167.295441,58.782074 203.092453,49.276627 239.261810,41.161835 
	C241.841751,40.583015 244.509094,40.393822 247.560974,40.003372 
z"/>
<path fill="#232323" opacity="1.000000" stroke="none" 
	d="
M420.504089,24.022202 
	C416.730408,24.359886 412.556854,24.946236 408.414215,24.776691 
	C400.990540,24.472866 393.593536,23.393328 386.171112,23.207466 
	C366.040680,22.703388 346.178070,25.744230 326.267487,28.127464 
	C324.413055,28.349432 322.441681,27.594719 320.208496,27.119057 
	C331.030396,25.361689 342.141418,23.546177 353.312347,22.245525 
	C374.806061,19.742962 396.302704,19.372990 417.707855,23.301729 
	C418.522278,23.451204 419.315186,23.718073 420.504089,24.022202 
z"/>
<path fill="#000000" opacity="1.000000" stroke="none" 
	d="
M662.697266,369.627411 
	C648.381042,372.993286 633.823364,376.146698 619.265747,379.300110 
	C619.071350,378.428925 618.876953,377.557709 618.682556,376.686523 
	C631.105896,372.852631 643.109985,367.414978 657.165771,368.032959 
	C659.243591,368.501862 660.849792,368.958405 662.697266,369.627411 
M648.517273,370.529144 
	C648.517273,370.529144 648.501892,370.480438 648.517273,370.529144 
z"/>
<path fill="#232323" opacity="1.000000" stroke="none" 
	d="
M317.532349,27.053215 
	C316.205750,28.011679 314.549469,29.496923 312.681030,29.845697 
	C299.845642,32.241646 286.992859,34.575775 274.087616,36.550640 
	C268.680817,37.378025 263.132660,37.281425 257.399536,37.380058 
	C268.404602,34.956547 279.625092,32.561172 290.924042,30.622906 
	C299.599640,29.134661 308.374023,28.222483 317.532349,27.053215 
z"/>
<path fill="#232323" opacity="1.000000" stroke="none" 
	d="
M60.619263,104.985100 
	C55.469704,110.221680 49.450634,114.597725 41.347755,115.327103 
	C47.518520,111.793831 53.880100,108.413185 60.619263,104.985100 
z"/>
<path fill="#161616" opacity="1.000000" stroke="none" 
	d="
M735.498169,355.508606 
	C735.518799,355.503418 735.477478,355.513763 735.498169,355.508606 
z"/>
<path fill="#000000" opacity="1.000000" stroke="none" 
	d="
M806.371460,282.381165 
	C813.005615,272.988495 819.498047,263.932465 825.800781,254.746262 
	C827.594055,252.132629 829.167908,250.830475 832.705994,251.803467 
	C844.558838,255.063110 856.065002,253.026276 867.118835,248.259781 
	C877.661438,243.713699 888.021973,238.747101 898.532349,234.124130 
	C906.884338,230.450500 914.830322,230.163269 923.906677,233.709030 
	C942.265198,240.881012 961.496704,245.815674 979.866455,252.962631 
	C989.275940,256.623444 998.768982,255.512100 1008.144714,257.068268 
	C1009.749512,257.334625 1011.299561,257.931335 1012.670105,259.289764 
	C966.315857,270.261383 919.857849,280.816437 873.636230,292.321075 
	C826.836609,303.969513 780.154785,316.133179 733.635254,328.853210 
	C687.350525,341.509064 641.331482,355.136902 595.195984,368.338562 
	C594.935181,367.898438 594.674316,367.458282 594.413513,367.018158 
	C598.166382,361.484436 602.306152,356.170929 605.603149,350.377747 
	C617.951599,328.679871 630.082153,306.857025 642.169556,285.011963 
	C646.433228,277.306519 650.003235,269.198364 654.578125,261.693604 
	C656.331604,258.817200 659.679199,256.315765 662.861145,255.008728 
	C677.852295,248.850815 692.395142,241.924545 705.453186,232.230103 
	C708.481323,229.981964 710.828918,226.801498 713.903687,224.638733 
	C715.313416,223.647156 717.949158,223.409073 719.647095,223.974930 
	C732.103394,228.126007 744.342041,229.172531 756.426392,222.756485 
	C761.813965,219.896011 767.289612,217.201340 773.644836,213.962860 
	C772.894836,227.765121 772.043701,240.637314 771.545471,253.523132 
	C771.179382,262.991241 770.623779,272.531830 771.411499,281.934631 
	C771.879272,287.518433 773.878296,293.686432 780.358643,295.847351 
	C787.465332,298.217102 793.877319,296.585114 799.046387,291.036346 
	C801.538940,288.360779 803.794739,285.464661 806.371460,282.381165 
z"/>
<path fill="#000000" opacity="1.000000" stroke="none" 
	d="
M502.884583,163.583282 
	C499.972565,172.349091 497.242371,180.722641 494.139099,188.955566 
	C492.503326,193.295151 490.446136,197.523529 488.107117,201.526245 
	C487.207458,203.065796 484.996826,203.839279 483.383514,204.961792 
	C482.269470,203.132797 480.140320,201.262024 480.213593,199.481934 
	C480.568665,190.856979 481.222382,182.218079 482.342712,173.659042 
	C483.270508,166.570969 479.781464,161.638458 474.966034,157.748718 
	C470.410461,154.068924 464.977753,152.558319 459.292633,156.335709 
	C446.545898,164.804993 433.886749,173.423294 420.890411,181.495499 
	C402.944092,192.642242 384.935150,203.725937 366.509369,214.044434 
	C359.103577,218.191727 350.521759,220.238953 342.475189,223.242004 
	C342.059479,222.647110 341.643768,222.052216 341.228058,221.457321 
	C345.143402,217.218155 348.691803,212.549530 353.048523,208.826920 
	C362.901184,200.408249 372.718323,191.827332 383.356812,184.480927 
	C395.489929,176.102463 408.481415,168.963211 421.137726,161.348328 
	C425.830017,158.525131 430.463531,155.513245 435.430725,153.265610 
	C439.736267,151.317352 444.480927,150.344528 449.021240,148.908218 
	C452.029999,147.956421 455.211060,147.317734 457.982544,145.892456 
	C465.254272,142.152802 472.953003,141.336655 480.822632,142.329193 
	C486.200928,143.007523 491.505371,144.395370 496.784027,145.703201 
	C501.623138,146.902130 503.312164,150.344986 502.959625,155.140762 
	C502.764771,157.791565 502.916168,160.467834 502.884583,163.583282 
M472.522369,143.515442 
	C472.522369,143.515442 472.520447,143.487915 472.522369,143.515442 
z"/>
<path fill="#000000" opacity="1.000000" stroke="none" 
	d="
M634.156982,247.198029 
	C623.278625,248.859879 612.813660,250.568741 602.296631,251.851532 
	C600.578186,252.061142 597.587891,250.800186 597.069458,249.479385 
	C596.502502,248.034912 597.706360,245.430191 598.852112,243.848022 
	C617.493591,218.106354 641.474548,198.040344 666.677368,179.068985 
	C673.257751,174.115677 679.911743,170.231842 688.800232,166.482452 
	C686.277466,171.873550 684.609192,176.132843 682.383423,180.077545 
	C671.515198,199.338364 660.297180,218.404816 649.648743,237.784943 
	C646.175659,244.105927 640.392639,245.327103 634.156982,247.198029 
z"/>
<path fill="#000000" opacity="1.000000" stroke="none" 
	d="
M903.976929,53.967957 
	C900.804932,63.241444 898.342896,72.834770 894.334473,81.731400 
	C879.369934,114.944839 863.983154,147.969452 848.563171,180.975388 
	C844.201172,190.312180 839.186218,199.343994 834.227112,208.753540 
	C833.983521,208.991425 833.924988,208.930450 833.924988,208.930450 
	C836.550171,198.319016 838.369995,187.427353 841.947083,177.147156 
	C854.111633,142.187943 870.129639,108.986473 889.403320,77.372650 
	C894.072083,69.714699 898.820679,62.105465 903.769470,54.234749 
	C904.006348,53.995674 903.976929,53.967957 903.976929,53.967957 
z"/>
<path fill="#000000" opacity="1.000000" stroke="none" 
	d="
M516.538086,432.921875 
	C516.417175,428.592712 516.312805,424.502655 516.672119,420.453705 
	C516.759521,419.468445 518.216064,418.142456 519.308594,417.785492 
	C525.304016,415.826538 531.375793,414.098511 537.442688,412.365906 
	C537.954834,412.219666 538.623962,412.623322 540.704407,413.140320 
	C535.379272,418.445709 530.777161,423.064758 526.132263,427.640472 
	C524.476624,429.271423 522.865295,431.021088 520.949402,432.285767 
	C519.832214,433.023254 518.152039,432.907776 516.538086,432.921875 
z"/>
<path fill="#000000" opacity="1.000000" stroke="none" 
	d="
M904.021362,54.009346 
	C904.230652,52.046543 904.424927,50.070072 904.619263,48.093605 
	C905.303467,48.207298 905.987671,48.320992 906.671814,48.434685 
	C907.239197,50.570480 908.061340,52.763897 904.241516,53.967667 
	C903.976929,53.967957 904.006348,53.995674 904.021362,54.009346 
z"/>
<path fill="#000000" opacity="1.000000" stroke="none" 
	d="
M908.143005,338.771088 
	C907.561340,338.828308 907.105896,338.828308 906.650513,338.828308 
	C906.677185,338.643921 906.703857,338.459503 906.730530,338.275116 
	C907.243408,338.421356 907.756348,338.567627 908.143005,338.771088 
z"/>
<path fill="#000000" opacity="1.000000" stroke="none" 
	d="
M72.997742,263.008789 
	C72.766808,263.157288 72.506561,263.270050 72.246315,263.382782 
	C72.386475,263.234802 72.526634,263.086792 72.787918,262.920471 
	C72.909042,262.902100 72.968430,262.973022 72.997742,263.008789 
z"/>
<path fill="#000000" opacity="1.000000" stroke="none" 
	d="
M995.468262,264.450439 
	C995.486877,264.421844 995.449707,264.479065 995.468262,264.450439 
z"/>
<path fill="#000000" opacity="1.000000" stroke="none" 
	d="
M815.501221,346.549622 
	C815.473633,346.538605 815.528748,346.560669 815.501221,346.549622 
z"/>
<path fill="#000000" opacity="1.000000" stroke="none" 
	d="
M849.975098,355.020935 
	C849.706299,354.961395 849.452759,354.882568 849.199219,354.803711 
	C849.402405,354.810852 849.605591,354.817993 849.914185,354.893555 
	C850.019592,354.961975 849.990417,355.001617 849.975098,355.020935 
z"/>
<path fill="#000000" opacity="1.000000" stroke="none" 
	d="
M553.941162,201.934189 
	C553.904785,201.901077 554.116333,201.636368 554.116333,201.636368 
	C554.116333,201.636368 554.131714,201.921860 554.091614,201.977097 
	C554.051514,202.032333 553.977600,201.967300 553.941162,201.934189 
z"/>
<path fill="#000000" opacity="1.000000" stroke="none" 
	d="
M507.960510,433.943604 
	C507.901001,433.885834 508.145203,434.029083 508.141113,434.074066 
	C508.137024,434.119049 508.020050,434.001404 507.960510,433.943604 
z"/>
<path fill="#000000" opacity="1.000000" stroke="none" 
	d="
M604.491272,367.501282 
	C604.514038,367.495239 604.468506,367.507294 604.491272,367.501282 
z"/>
<path fill="#000000" opacity="1.000000" stroke="none" 
	d="
M969.490234,270.491089 
	C969.497253,270.513031 969.483215,270.469177 969.490234,270.491089 
z"/>
<path fill="#000000" opacity="1.000000" stroke="none" 
	d="
M834.013672,209.021072 
	C834.043762,209.050720 833.904602,208.985580 833.914795,208.958008 
	C833.924988,208.930450 833.983521,208.991425 834.013672,209.021072 
z"/>
<path fill="#000000" opacity="1.000000" stroke="none" 
	d="
M865.960083,182.033173 
	C865.932190,182.061996 865.997375,181.924881 866.021362,181.936584 
	C866.045349,181.948273 865.987976,182.004349 865.960083,182.033173 
z"/>
<path fill="#161616" opacity="1.000000" stroke="none" 
	d="
M648.509583,370.504791 
	C648.501892,370.480438 648.517273,370.529144 648.509583,370.504791 
z"/>
<path fill="#161616" opacity="1.000000" stroke="none" 
	d="
M472.521423,143.501678 
	C472.520447,143.487915 472.522369,143.515442 472.521423,143.501678 
z"/>
</svg>